<svg width="25" height="25" viewBox="0 0 25 25" fill="none" xmlns="http://www.w3.org/2000/svg">
<path fill-rule="evenodd" clip-rule="evenodd" d="M8.60703 6.25012C9.11877 6.24062 9.62978 6.29308 10.1289 6.40637C10.5492 6.49812 10.9482 6.66885 11.3047 6.90949C11.634 7.14878 11.8945 7.47048 12.0602 7.8423C12.2505 8.29952 12.3424 8.79173 12.3297 9.28684C12.3513 9.83047 12.2125 10.3684 11.9305 10.8337C11.6338 11.2731 11.2237 11.6241 10.7438 11.8493C11.3951 12.0249 11.9625 12.4272 12.3438 12.9837C12.7098 13.5734 12.8938 14.2579 12.8727 14.9517C12.8847 15.5048 12.7704 16.0534 12.5383 16.5556C12.3238 16.9937 12.0096 17.3755 11.6211 17.6704C11.2211 17.9621 10.7709 18.1779 10.293 18.3071C9.79734 18.4443 9.28533 18.5131 8.77109 18.5118H3.125V6.25012H8.60703ZM8.28125 11.2095C8.68333 11.2261 9.07913 11.1057 9.40391 10.8681C9.55945 10.7296 9.68044 10.5567 9.75722 10.3631C9.834 10.1695 9.86444 9.96068 9.84609 9.75324C9.8565 9.51096 9.80826 9.26976 9.70547 9.05012C9.61827 8.87524 9.48269 8.72909 9.31484 8.62902C9.14484 8.51888 8.95384 8.44519 8.75391 8.41262C8.53698 8.37059 8.31624 8.35148 8.09531 8.35559H5.68281V11.2204H8.28125V11.2095ZM8.42188 16.4298C8.66503 16.4331 8.90769 16.4069 9.14453 16.3517C9.36097 16.3039 9.56623 16.215 9.74922 16.09C9.92848 15.965 10.0733 15.7967 10.1703 15.6009C10.2828 15.3512 10.3345 15.0784 10.3211 14.8048C10.3455 14.5555 10.3125 14.304 10.2246 14.0694C10.1367 13.8349 9.99626 13.6236 9.81406 13.4517C9.42789 13.1673 8.95464 13.0264 8.47578 13.0532H5.68281V16.4298H8.42188Z" fill="black"/>
<path fill-rule="evenodd" clip-rule="evenodd" d="M16.5156 16.3845C16.7164 16.5706 16.9529 16.7139 17.2107 16.8058C17.4686 16.8976 17.7424 16.9361 18.0156 16.9189C18.4487 16.9298 18.8734 16.798 19.2242 16.5439C19.5096 16.3583 19.7258 16.0837 19.8391 15.7626H21.8789C21.6616 16.6765 21.1308 17.4854 20.3789 18.0486C19.6576 18.5273 18.8052 18.7698 17.9398 18.7423C17.3223 18.7504 16.7093 18.6343 16.1375 18.4009C15.6202 18.1852 15.1563 17.8591 14.7781 17.4454C14.4014 17.012 14.112 16.5098 13.9258 15.9665C13.7168 15.3593 13.6145 14.7204 13.6234 14.0782C13.6196 13.4469 13.7254 12.8196 13.9359 12.2243C14.2188 11.3869 14.7598 10.6607 15.4811 10.1498C16.2023 9.63886 17.0669 9.36959 17.9508 9.38059C18.6033 9.36695 19.2486 9.51966 19.8258 9.82433C20.3475 10.1104 20.7976 10.5111 21.1422 10.9962C21.4947 11.5052 21.7473 12.0765 21.8867 12.6798C22.0396 13.3276 22.0941 13.9947 22.0484 14.6587H15.9727C15.9234 15.2826 16.1181 15.9012 16.5156 16.3845ZM19.1813 11.7212C19.0112 11.5511 18.8067 11.4195 18.5815 11.3351C18.3564 11.2508 18.1157 11.2157 17.8758 11.2321C17.5575 11.22 17.2415 11.2905 16.9586 11.4368C16.7343 11.5603 16.5363 11.7264 16.3758 11.9259C16.2335 12.1129 16.1275 12.3249 16.0633 12.5509C16.0054 12.7394 15.9692 12.9339 15.9555 13.1306H19.7188C19.686 12.6178 19.4992 12.1269 19.1828 11.722L19.1813 11.7212Z" fill="black"/>
<path d="M15.4703 7.06887H20.1859V8.27433H15.4703V7.06887Z" fill="black"/>
</svg>
