<svg width="25" height="25" viewBox="0 0 25 25" fill="none" xmlns="http://www.w3.org/2000/svg">
<path fill-rule="evenodd" clip-rule="evenodd" d="M12.5 21.875C7.32444 21.875 3.125 17.6756 3.125 12.5C3.125 7.32444 7.32444 3.125 12.5 3.125C17.6654 3.125 21.875 7.32444 21.875 12.5C21.875 17.6756 17.6654 21.875 12.5 21.875ZM18.6924 17.5536C19.8109 16.191 20.482 14.4523 20.5023 12.5712C20.2379 12.622 17.5942 13.1609 14.9302 12.8254C14.8692 12.9576 14.8183 13.0999 14.7573 13.2423C14.5946 13.6287 14.4116 14.0252 14.2286 14.4014C17.1773 15.6013 18.5195 17.3298 18.6924 17.5536ZM12.5 20.4921C14.5336 20.4921 16.3944 19.7295 17.8077 18.4788C17.6654 18.2755 16.4554 16.6588 13.6083 15.5911C12.2966 18.001 10.8426 19.9736 10.6189 20.2786C11.2188 20.421 11.8492 20.4921 12.5 20.4921ZM9.09369 19.7397C9.30721 19.455 10.7307 17.4722 12.0628 15.1132C8.32091 14.1167 5.01627 14.1371 4.66038 14.1371C5.17895 16.6181 6.8567 18.6822 9.09369 19.7397ZM4.48753 12.4898C4.48753 12.5712 4.48753 12.6525 4.48753 12.7339C4.83324 12.7237 8.71747 12.6729 12.7135 13.8727C12.9474 13.4253 13.1609 12.9677 13.3643 12.5102C13.2626 12.4797 13.1508 12.4492 13.0491 12.4187C8.92083 11.0866 6.72451 7.44644 6.54149 7.1414C5.27047 8.55478 4.48753 10.4359 4.48753 12.4898ZM12.5 4.48753C10.6494 4.48753 8.94116 5.11796 7.58879 6.17544C7.73116 6.4703 9.35806 9.60209 13.8727 11.1781C13.893 11.1883 13.9032 11.1883 13.9235 11.1985C15.0522 8.28024 15.5098 5.82972 15.6318 5.12812C14.6658 4.71123 13.6083 4.48753 12.5 4.48753ZM16.9638 5.86021C16.8825 6.34829 16.4554 8.68696 15.4081 11.5645C17.9196 11.9611 20.1159 11.3103 20.3904 11.2188C20.0447 8.99201 18.7635 7.07022 16.9638 5.86021Z" fill="black"/>
</svg>
