<svg width="24" height="24" viewBox="0 0 24 24" fill="none" xmlns="http://www.w3.org/2000/svg">
<path fill-rule="evenodd" clip-rule="evenodd" d="M1.5 4C1.5 2.61929 2.61929 1.5 4 1.5H10.5V2.5H4C3.17157 2.5 2.5 3.17157 2.5 4V10.5H1.5V4Z" fill="black"/>
<path fill-rule="evenodd" clip-rule="evenodd" d="M22.5 20C22.5 21.3807 21.3807 22.5 20 22.5H13.5V21.5H20C20.8284 21.5 21.5 20.8284 21.5 20V13.5H22.5V20Z" fill="black"/>
<path fill-rule="evenodd" clip-rule="evenodd" d="M22.5 4C22.5 2.61929 21.3807 1.5 20 1.5H13.5V2.5H20C20.8284 2.5 21.5 3.17157 21.5 4V10.5H22.5V4Z" fill="black"/>
<path fill-rule="evenodd" clip-rule="evenodd" d="M1.5 20C1.5 21.3807 2.61929 22.5 4 22.5H10.5V21.5H4C3.17157 21.5 2.5 20.8284 2.5 20V13.5H1.5V20Z" fill="black"/>
</svg>
