<svg width="25" height="25" viewBox="0 0 25 25" fill="none" xmlns="http://www.w3.org/2000/svg">
<path d="M12.5006 3.40918C10.0317 3.40918 9.72187 3.41998 8.7522 3.4641C7.78443 3.50842 7.12384 3.66164 6.54583 3.88645C5.94793 4.11865 5.44075 4.42926 4.93546 4.93475C4.42979 5.44005 4.1192 5.94725 3.88625 6.54497C3.66088 7.12319 3.50747 7.78399 3.46391 8.75141C3.42054 9.72111 3.40918 10.0311 3.40918 12.5001C3.40918 14.969 3.42016 15.2779 3.4641 16.2476C3.50861 17.2154 3.66182 17.876 3.88644 18.4541C4.11882 19.052 4.42941 19.5592 4.93489 20.0645C5.43999 20.5702 5.94717 20.8815 6.54469 21.1137C7.12308 21.3385 7.78386 21.4918 8.75144 21.5361C9.72111 21.5802 10.0308 21.591 12.4994 21.591C14.9685 21.591 15.2774 21.5802 16.247 21.5361C17.2148 21.4918 17.8762 21.3385 18.4546 21.1137C19.0523 20.8815 19.5587 20.5702 20.0638 20.0645C20.5695 19.5592 20.8801 19.052 21.113 18.4543C21.3365 17.876 21.4899 17.2152 21.5353 16.2478C21.5789 15.2781 21.5903 14.969 21.5903 12.5001C21.5903 10.0311 21.5789 9.7213 21.5353 8.7516C21.4899 7.7838 21.3365 7.12319 21.113 6.54516C20.8801 5.94725 20.5695 5.44005 20.0638 4.93475C19.5581 4.42907 19.0525 4.11846 18.454 3.88645C17.8745 3.66164 17.2135 3.50842 16.2457 3.4641C15.2761 3.41998 14.9674 3.40918 12.4977 3.40918H12.5006ZM11.6851 5.04744C11.9271 5.04706 12.1972 5.04744 12.5006 5.04744C14.9278 5.04744 15.2155 5.05615 16.1739 5.09971C17.0603 5.14024 17.5413 5.28835 17.8618 5.41278C18.286 5.57755 18.5885 5.77452 18.9064 6.0927C19.2246 6.41088 19.4216 6.71391 19.5867 7.13816C19.7111 7.45823 19.8594 7.93929 19.8998 8.82566C19.9433 9.78399 19.9528 10.0719 19.9528 12.498C19.9528 14.9241 19.9433 15.212 19.8998 16.1704C19.8592 17.0567 19.7111 17.5378 19.5867 17.8579C19.422 18.2821 19.2246 18.5842 18.9064 18.9022C18.5883 19.2204 18.2862 19.4173 17.8618 19.5821C17.5417 19.7071 17.0603 19.8548 16.1739 19.8954C15.2156 19.9389 14.9278 19.9484 12.5006 19.9484C10.0732 19.9484 9.7855 19.9389 8.8272 19.8954C7.94086 19.8544 7.45981 19.7063 7.13918 19.5819C6.71495 19.4171 6.41193 19.2202 6.09376 18.902C5.77559 18.5838 5.57862 18.2815 5.41348 17.8571C5.28905 17.537 5.14076 17.056 5.10042 16.1696C5.05686 15.2113 5.04815 14.9234 5.04815 12.4957C5.04815 10.0681 5.05686 9.78172 5.10042 8.82338C5.14095 7.93702 5.28905 7.45596 5.41348 7.1355C5.57824 6.71126 5.77559 6.40823 6.09376 6.09005C6.41193 5.77187 6.71495 5.5749 7.13918 5.40975C7.45963 5.28475 7.94086 5.13702 8.8272 5.0963C9.66581 5.05842 9.9908 5.04706 11.6851 5.04516V5.04744ZM17.3531 6.55691C16.7508 6.55691 16.2622 7.04497 16.2622 7.64744C16.2622 8.24971 16.7508 8.73835 17.3531 8.73835C17.9553 8.73835 18.444 8.24971 18.444 7.64744C18.444 7.04516 17.9553 6.55653 17.3531 6.55653V6.55691ZM12.5006 7.83153C9.92243 7.83153 7.83215 9.92187 7.83215 12.5001C7.83215 15.0783 9.92243 17.1677 12.5006 17.1677C15.0787 17.1677 17.1682 15.0783 17.1682 12.5001C17.1682 9.92187 15.0785 7.83153 12.5004 7.83153H12.5006ZM12.5006 9.46979C14.174 9.46979 15.5308 10.8264 15.5308 12.5001C15.5308 14.1736 14.174 15.5304 12.5006 15.5304C10.8269 15.5304 9.47036 14.1736 9.47036 12.5001C9.47036 10.8264 10.8269 9.46979 12.5006 9.46979V9.46979Z" fill="black"/>
</svg>
