<svg width="23" height="23" viewBox="0 0 23 23" fill="none" xmlns="http://www.w3.org/2000/svg">
<path fill-rule="evenodd" clip-rule="evenodd" d="M12.2869 2.83532C14.4228 2.9403 16.4131 3.8211 17.9333 5.34227C19.5548 6.96479 20.4473 9.12155 20.4464 11.4152C20.4445 16.1483 16.5914 19.9993 11.858 19.9993C10.078 19.9993 8.6635 19.4524 7.75017 18.9545L3.19727 20.1482L4.41573 15.6999C3.66414 14.3981 3.26866 12.9214 3.26928 11.4084C3.27118 6.67539 7.12398 2.82471 11.8579 2.82471L12.2869 2.83532ZM7.96109 17.4004L8.2218 17.5551C9.3178 18.2051 10.5741 18.5491 11.855 18.5496H11.8579C15.7925 18.5496 18.9947 15.3488 18.9963 11.4147C18.997 9.50825 18.2552 7.71563 16.9075 6.36703C15.5597 5.01835 13.7675 4.27519 11.8608 4.27457C7.92324 4.27457 4.72093 7.475 4.71936 11.4089C4.71883 12.757 5.09621 14.07 5.81078 15.2059L5.98051 15.4759L5.25937 18.1088L7.96109 17.4004ZM16.1848 13.4565C16.1311 13.3669 15.9881 13.3133 15.7735 13.2059C15.5589 13.0986 14.5038 12.5797 14.3071 12.508C14.1104 12.4365 13.9673 12.4008 13.8243 12.6154C13.6813 12.8301 13.27 13.3133 13.1448 13.4565C13.0196 13.5996 12.8944 13.6175 12.6799 13.5102C12.4653 13.4028 11.7738 13.1763 10.9541 12.4455C10.3162 11.8768 9.88549 11.1744 9.7603 10.9597C9.63515 10.745 9.74695 10.6289 9.85438 10.5219C9.95093 10.4258 10.069 10.2714 10.1763 10.1461C10.2836 10.0209 10.3194 9.93141 10.3909 9.78832C10.4624 9.64515 10.4267 9.51994 10.373 9.41257C10.3194 9.30516 9.8902 8.24938 9.71138 7.81991C9.53715 7.4017 9.36023 7.45832 9.22851 7.45171C9.10349 7.44552 8.96029 7.44415 8.81725 7.44415C8.67417 7.44415 8.44168 7.4978 8.24498 7.71258C8.04827 7.92728 7.49389 8.44624 7.49389 9.50193C7.49389 10.5577 8.26287 11.5776 8.37017 11.7208C8.47747 11.864 9.88338 14.0304 12.0361 14.9595C12.5481 15.1805 12.9478 15.3125 13.2595 15.4113C13.7736 15.5746 14.2414 15.5516 14.6111 15.4963C15.0234 15.4348 15.8808 14.9774 16.0596 14.4765C16.2384 13.9754 16.2384 13.5459 16.1848 13.4565Z" fill="black"/>
</svg>
