<?xml version="1.0" standalone="no"?>
<!DOCTYPE svg PUBLIC "-//W3C//DTD SVG 20010904//EN"
 "http://www.w3.org/TR/2001/REC-SVG-20010904/DTD/svg10.dtd">
<svg version="1.0" xmlns="http://www.w3.org/2000/svg"
 width="444.000000pt" height="444.000000pt" viewBox="0 0 444.000000 444.000000"
 preserveAspectRatio="xMidYMid meet">
<metadata>
Created by potrace 1.14, written by Peter Selinger 2001-2017
</metadata>
<g transform="translate(0.000000,444.000000) scale(0.100000,-0.100000)"
fill="#000000" stroke="none">
<path d="M2210 4105 c-12 -30 -30 -87 -325 -980 -409 -1240 -372 -1135 -418
-1186 -91 -100 -195 -216 -233 -259 -21 -25 -56 -63 -76 -85 -20 -22 -45 -49
-55 -61 -29 -34 -136 -154 -158 -178 -11 -13 -51 -58 -90 -101 -38 -43 -74
-83 -80 -89 -60 -66 -111 -124 -165 -186 -36 -40 -88 -99 -116 -129 -28 -31
-68 -76 -90 -101 -21 -25 -43 -50 -49 -56 -5 -6 -39 -44 -75 -84 -77 -87 -84
-95 -175 -195 -38 -43 -76 -86 -83 -96 -11 -16 -10 -17 9 -14 11 2 28 6 37 9
9 3 31 8 47 11 72 12 91 16 105 20 8 2 29 7 45 9 17 3 93 19 170 35 77 16 151
32 165 35 14 2 68 14 120 25 52 11 109 23 125 25 17 3 127 26 245 52 118 25
224 47 235 50 20 4 98 20 145 29 105 22 128 27 150 31 14 2 57 11 95 20 39 8
79 16 90 19 11 2 108 22 215 44 202 42 205 42 325 17 109 -24 275 -59 295 -62
14 -3 68 -14 120 -25 52 -11 190 -40 305 -64 354 -74 686 -143 765 -160 41 -9
91 -18 110 -21 19 -3 38 -8 41 -10 3 -2 21 -6 40 -9 52 -8 225 -44 240 -49 8
-3 28 -7 44 -10 17 -2 51 -9 78 -14 26 -5 47 -6 47 -2 0 5 -3 10 -7 12 -5 2
-44 44 -88 93 -44 50 -84 95 -90 101 -5 6 -41 46 -80 89 -38 43 -74 83 -80 89
-5 6 -41 47 -80 91 -38 44 -79 89 -90 101 -11 11 -35 38 -54 60 -32 35 -182
203 -206 230 -5 6 -39 44 -75 84 -36 40 -69 78 -75 84 -5 6 -44 49 -85 96 -66
74 -122 137 -155 174 -6 6 -66 74 -135 151 -68 77 -140 157 -161 179 -26 28
-45 65 -69 134 -17 53 -34 103 -35 111 -2 9 -20 61 -39 116 -19 55 -143 431
-276 835 -133 404 -262 794 -285 865 -42 125 -44 129 -55 100z"/>
</g>
</svg>
